<svg id="Layer_1" data-name="Layer 1" xmlns="http://www.w3.org/2000/svg" viewBox="0 0 144 144"><defs><style>.cls-1{fill:#88c97e;}.cls-2{fill:none;}.cls-3{fill:#fff;}</style></defs><rect class="cls-1" y="-0.67" width="144" height="144"/><circle class="cls-2" cx="31" cy="107.33" r="4.5"/><circle class="cls-2" cx="58" cy="53.33" r="4.5"/><circle class="cls-2" cx="31" cy="71.33" r="4.5"/><circle class="cls-2" cx="31" cy="26.33" r="4.5"/><rect class="cls-2" x="98.5" y="48.83" width="9" height="18"/><path class="cls-3" d="M108,45H90V27H44.21a13.5,13.5,0,1,0,0,9H81V54h9V81h18v9H63V71.21a13.5,13.5,0,1,0-9,0V72H44.21a13.5,13.5,0,1,0,0,9H54V99h54v9H44.21a13.5,13.5,0,1,0,0,9H126V45H108ZM31.5,36A4.5,4.5,0,1,1,36,31.5,4.51,4.51,0,0,1,31.5,36Zm0,45A4.5,4.5,0,1,1,36,76.5,4.51,4.51,0,0,1,31.5,81Zm27-27A4.5,4.5,0,1,1,54,58.5,4.51,4.51,0,0,1,58.5,54Zm-27,63a4.5,4.5,0,1,1,4.5-4.5A4.51,4.51,0,0,1,31.5,117ZM99,72V54h9V72Z"/></svg>